<?xml version="1.0" encoding="UTF-8"?>
<!DOCTYPE svg PUBLIC "-//W3C//DTD SVG 1.1//EN" "http://www.w3.org/Graphics/SVG/1.1/DTD/svg11.dtd">
<svg xmlns="http://www.w3.org/2000/svg" version="1.1" width="256px" height="256px" style="shape-rendering:geometricPrecision; text-rendering:geometricPrecision; image-rendering:optimizeQuality; fill-rule:evenodd; clip-rule:evenodd" xmlns:xlink="http://www.w3.org/1999/xlink">
<g><path style="opacity:0.337" fill="#322c87" d="M 148.5,0.5 C 151.781,0.420323 154.781,1.08699 157.5,2.5C 154.171,2.78472 151.171,2.11805 148.5,0.5 Z"/></g>
<g><path style="opacity:0.027" fill="#2e268a" d="M 157.5,2.5 C 160.428,2.56513 163.095,3.2318 165.5,4.5C 162.505,4.70621 159.838,4.03954 157.5,2.5 Z"/></g>
<g><path style="opacity:0.667" fill="#4f4a9a" d="M 165.5,4.5 C 170.132,5.59609 174.466,7.26276 178.5,9.5C 173.676,8.78655 169.343,7.11988 165.5,4.5 Z"/></g>
<g><path style="opacity:0.369" fill="#191375" d="M 105.5,-0.5 C 108.167,-0.5 110.833,-0.5 113.5,-0.5C 49.5039,11.4961 11.5039,49.4961 -0.5,113.5C -0.5,110.167 -0.5,106.833 -0.5,103.5C 13.3878,46.9453 48.7211,12.2787 105.5,-0.5 Z"/></g>
<g><path style="opacity:1" fill="#ddeef7" d="M 113.5,-0.5 C 124.833,-0.5 136.167,-0.5 147.5,-0.5C 147.5,0.166667 147.833,0.5 148.5,0.5C 151.171,2.11805 154.171,2.78472 157.5,2.5C 159.838,4.03954 162.505,4.70621 165.5,4.5C 169.343,7.11988 173.676,8.78655 178.5,9.5C 221.918,29.5901 247.584,63.2568 255.5,110.5C 255.5,122.167 255.5,133.833 255.5,145.5C 243.167,206.5 206.5,243.167 145.5,255.5C 133.167,255.5 120.833,255.5 108.5,255.5C 108.158,254.662 107.492,254.328 106.5,254.5C 103.781,253.087 100.781,252.42 97.5,252.5C 95.7085,252.634 94.0418,252.301 92.5,251.5C 90.3155,249.415 87.6489,248.415 84.5,248.5C 82.1016,248.741 80.1016,248.074 78.5,246.5C 76.8243,244.166 74.491,243.166 71.5,243.5C 69.847,243.34 68.5137,242.674 67.5,241.5C 67.0269,240.094 66.0269,239.427 64.5,239.5C 62.847,239.34 61.5137,238.674 60.5,237.5C 60.0269,236.094 59.0269,235.427 57.5,235.5C 57.0269,234.094 56.0269,233.427 54.5,233.5C 53.7377,231.738 52.4044,230.738 50.5,230.5C 49.7377,228.738 48.4044,227.738 46.5,227.5C 18.9009,203.301 3.2342,172.968 -0.5,136.5C -0.5,128.833 -0.5,121.167 -0.5,113.5C 11.5039,49.4961 49.5039,11.4961 113.5,-0.5 Z"/></g>
<g><path style="opacity:1" fill="#af6774" d="M 146.5,77.5 C 150.806,78.0658 151.139,78.7325 147.5,79.5C 147.351,80.552 147.517,81.552 148,82.5C 150.366,85.364 152.866,88.0307 155.5,90.5C 148.435,90.1935 141.435,89.3602 134.5,88C 131.688,86.0227 129.022,83.856 126.5,81.5C 125.269,80.3493 125.269,79.1827 126.5,78C 133.355,77.8174 140.022,77.6507 146.5,77.5 Z"/></g>
<g><path style="opacity:1" fill="#e2bb6a" d="M 124.5,90.5 C 125.685,91.8566 126.685,93.3566 127.5,95C 125.438,98.6149 124.105,102.448 123.5,106.5C 116.133,101.644 109.466,95.8102 103.5,89C 102.207,88.51 100.873,88.3433 99.5,88.5C 99.5,88.1667 99.5,87.8333 99.5,87.5C 103.824,86.2696 106.324,83.2696 107,78.5C 107.561,77.9781 108.228,77.6448 109,77.5C 114.028,82.0309 119.195,86.3643 124.5,90.5 Z"/></g>
<g><path style="opacity:1" fill="#fdfbc3" d="M 136.5,71.5 C 138.167,72.8333 139.833,74.1667 141.5,75.5C 132.668,75.1252 123.668,75.1252 114.5,75.5C 118.854,79.5219 123.187,83.5219 127.5,87.5C 127.5,88.5 127.5,89.5 127.5,90.5C 126.5,90.5 125.5,90.5 124.5,90.5C 119.195,86.3643 114.028,82.0309 109,77.5C 108.228,77.6448 107.561,77.9781 107,78.5C 106.324,83.2696 103.824,86.2696 99.5,87.5C 100.288,80.4221 103.288,74.5888 108.5,70C 117.866,69.7451 127.199,70.2451 136.5,71.5 Z"/></g>
<g><path style="opacity:1" fill="#894b68" d="M 203.5,64.5 C 204.492,64.3284 205.158,64.6618 205.5,65.5C 204.221,72.2243 201.221,78.0576 196.5,83C 195.207,83.49 193.873,83.6567 192.5,83.5C 190.833,83.5 189.167,83.5 187.5,83.5C 175.591,81.5629 163.591,80.3962 151.5,80C 154.094,82.0865 156.094,84.5865 157.5,87.5C 157.5,88.5 157.5,89.5 157.5,90.5C 156.833,90.5 156.167,90.5 155.5,90.5C 152.866,88.0307 150.366,85.364 148,82.5C 147.517,81.552 147.351,80.552 147.5,79.5C 151.139,78.7325 150.806,78.0658 146.5,77.5C 146.167,77.5 145.833,77.5 145.5,77.5C 145.5,76.5 145.5,75.5 145.5,74.5C 156.963,75.8306 168.463,76.8306 180,77.5C 184.87,77.3531 189.703,76.8531 194.5,76C 198.538,72.817 201.538,68.9836 203.5,64.5 Z"/></g>
<g><path style="opacity:1" fill="#c3747d" d="M 117.5,50.5 C 126.985,58.0153 136.985,65.682 147.5,73.5C 148.675,73.719 149.675,73.3857 150.5,72.5C 152.5,67.8333 154.5,63.1667 156.5,58.5C 157.667,58.1667 158.833,57.8333 160,57.5C 174.391,60.6269 188.891,62.9603 203.5,64.5C 201.538,68.9836 198.538,72.817 194.5,76C 189.703,76.8531 184.87,77.3531 180,77.5C 168.463,76.8306 156.963,75.8306 145.5,74.5C 145.5,75.5 145.5,76.5 145.5,77.5C 144.167,76.8333 142.833,76.1667 141.5,75.5C 139.833,74.1667 138.167,72.8333 136.5,71.5C 130.498,66.0662 124.332,60.7329 118,55.5C 116.546,53.7561 116.379,52.0894 117.5,50.5 Z"/></g>
<g><path style="opacity:1" fill="#6e4750" d="M 149.5,41.5 C 149.842,40.6618 150.508,40.3284 151.5,40.5C 156.326,43.8036 161.326,46.9703 166.5,50C 176.87,51.7535 187.204,53.5868 197.5,55.5C 198.71,55.9321 199.71,56.5987 200.5,57.5C 200.083,58.1239 199.416,58.4573 198.5,58.5C 187.195,56.1944 175.862,54.0278 164.5,52C 159.821,47.9978 154.821,44.4978 149.5,41.5 Z"/></g>
<g><path style="opacity:1" fill="#736551" d="M 151.5,40.5 C 162.155,42.1604 172.821,43.8271 183.5,45.5C 188.874,47.8529 193.541,51.1862 197.5,55.5C 187.204,53.5868 176.87,51.7535 166.5,50C 161.326,46.9703 156.326,43.8036 151.5,40.5 Z"/></g>
<g><path style="opacity:1" fill="#e3bb6a" d="M 149.5,52.5 C 150.582,53.5938 151.248,54.9271 151.5,56.5C 149.689,62.0773 148.355,67.744 147.5,73.5C 136.985,65.682 126.985,58.0153 117.5,50.5C 117.5,49.5 117.5,48.5 117.5,47.5C 118.423,48.3029 119.423,48.4696 120.5,48C 122.314,44.1981 124.814,41.0314 128,38.5C 135.309,42.9807 142.476,47.6474 149.5,52.5 Z"/></g>
<g><path style="opacity:1" fill="#f5ef94" d="M 149.5,41.5 C 154.821,44.4978 159.821,47.9978 164.5,52C 175.862,54.0278 187.195,56.1944 198.5,58.5C 199.416,58.4573 200.083,58.1239 200.5,57.5C 202.392,58.7017 204.226,60.035 206,61.5C 206.765,63.0657 206.598,64.3991 205.5,65.5C 205.158,64.6618 204.492,64.3284 203.5,64.5C 188.891,62.9603 174.391,60.6269 160,57.5C 158.833,57.8333 157.667,58.1667 156.5,58.5C 154.5,63.1667 152.5,67.8333 150.5,72.5C 149.675,73.3857 148.675,73.719 147.5,73.5C 148.355,67.744 149.689,62.0773 151.5,56.5C 151.248,54.9271 150.582,53.5938 149.5,52.5C 150.995,52.5852 151.995,51.9185 152.5,50.5C 146.679,45.7567 140.679,41.2567 134.5,37C 139.973,37.1156 144.973,38.6156 149.5,41.5 Z"/></g>
<g><path style="opacity:1" fill="#fbfac5" d="M 183.5,45.5 C 172.821,43.8271 162.155,42.1604 151.5,40.5C 150.508,40.3284 149.842,40.6618 149.5,41.5C 144.973,38.6156 139.973,37.1156 134.5,37C 140.679,41.2567 146.679,45.7567 152.5,50.5C 151.995,51.9185 150.995,52.5852 149.5,52.5C 142.476,47.6474 135.309,42.9807 128,38.5C 124.814,41.0314 122.314,44.1981 120.5,48C 119.423,48.4696 118.423,48.3029 117.5,47.5C 118.763,42.9681 120.597,38.6347 123,34.5C 125.133,32.1465 127.8,31.1465 131,31.5C 147.703,34.4675 164.203,38.3008 180.5,43C 181.942,43.3768 182.942,44.2101 183.5,45.5 Z"/></g>
<g><path style="opacity:1" fill="#010070" d="M 82.5,16.5 C 84.4941,55.1524 85.1607,94.1524 84.5,133.5C 72.8865,137.947 64.7198,145.947 60,157.5C 57.1501,163.911 58.1501,169.578 63,174.5C 63.3953,178.019 64.3953,181.352 66,184.5C 69.3961,187.393 72.2294,190.726 74.5,194.5C 70.8105,202.238 67.6439,210.238 65,218.5C 63.8942,221.726 62.0609,224.393 59.5,226.5C 54.7564,222.712 49.9231,219.045 45,215.5C 35.5951,203.692 26.9285,191.359 19,178.5C -0.957722,131.924 4.70894,88.5905 36,48.5C 49.7488,35.2449 65.2488,24.5783 82.5,16.5 Z"/></g>
<g><path style="opacity:1" fill="#fa0302" d="M 168.5,14.5 C 178.232,17.0321 187.232,21.1987 195.5,27C 227.129,49.3105 244.296,79.8105 247,118.5C 250.318,164.945 232.818,201.111 194.5,227C 188.331,230.363 182.331,233.863 176.5,237.5C 173.888,238.371 171.221,239.037 168.5,239.5C 168.5,206.833 168.5,174.167 168.5,141.5C 177.025,123.81 185.859,106.143 195,88.5C 197.831,88.0417 200.164,86.7084 202,84.5C 204.715,78.012 207.215,71.512 209.5,65C 209.458,63.0326 208.958,61.1992 208,59.5C 203.5,56.3333 199.667,52.5 196.5,48C 192.89,46.056 189.557,43.7226 186.5,41C 180.197,38.9623 174.197,36.4623 168.5,33.5C 168.5,27.1667 168.5,20.8333 168.5,14.5 Z"/></g>
<g><path style="opacity:1" fill="#3c3c8e" d="M 82.5,16.5 C 83.209,15.596 84.209,15.2627 85.5,15.5C 85.5,54.5 85.5,93.5 85.5,132.5C 85.5,133.167 85.1667,133.5 84.5,133.5C 85.1607,94.1524 84.4941,55.1524 82.5,16.5 Z"/></g>
<g><path style="opacity:1" fill="#fefefe" d="M 168.5,14.5 C 168.5,20.8333 168.5,27.1667 168.5,33.5C 154.146,29.1633 139.48,27.33 124.5,28C 119.78,30.9205 116.613,35.0872 115,40.5C 110.419,49.349 111.919,56.849 119.5,63C 100.539,64.0888 93.0387,73.9221 97,92.5C 102.344,99.0098 108.177,105.01 114.5,110.5C 110.625,117.084 106.625,123.584 102.5,130C 96.6558,130.048 90.9891,130.881 85.5,132.5C 85.5,93.5 85.5,54.5 85.5,15.5C 98.5864,9.29755 112.42,6.63089 127,7.5C 141.333,7.0943 155.167,9.42763 168.5,14.5 Z"/></g>
<g><path style="opacity:1" fill="#493146" d="M 187.5,83.5 C 189.167,83.5 190.833,83.5 192.5,83.5C 180.1,107.299 167.434,130.965 154.5,154.5C 153.118,155.801 151.452,156.634 149.5,157C 141.507,157.5 133.507,157.666 125.5,157.5C 133.66,144.52 141.327,131.187 148.5,117.5C 147.398,116.824 146.398,116.158 145.5,115.5C 148.167,115.833 150.833,116.167 153.5,116.5C 148.307,128.552 142.307,140.218 135.5,151.5C 138.167,152.833 140.833,152.833 143.5,151.5C 145.412,147.34 147.579,143.34 150,139.5C 151.11,137.963 152.61,137.297 154.5,137.5C 153.196,142.277 151.196,146.777 148.5,151C 149.635,151.749 150.635,151.583 151.5,150.5C 163.271,127.954 175.271,105.62 187.5,83.5 Z"/></g>
<g><path style="opacity:1" fill="#c37b77" d="M 157.5,87.5 C 160.839,87.8897 164.173,88.3897 167.5,89C 168.056,89.3826 168.389,89.8826 168.5,90.5C 164.732,91.7866 161.065,91.7866 157.5,90.5C 157.5,89.5 157.5,88.5 157.5,87.5 Z"/></g>
<g><path style="opacity:1" fill="#faf394" d="M 127.5,87.5 C 132.128,90.9904 137.462,92.4904 143.5,92C 147.324,92.4328 150.657,93.5994 153.5,95.5C 146.33,96.4757 138.997,96.4757 131.5,95.5C 130.707,100.422 128.374,104.422 124.5,107.5C 123.893,107.376 123.56,107.043 123.5,106.5C 124.105,102.448 125.438,98.6149 127.5,95C 126.685,93.3566 125.685,91.8566 124.5,90.5C 125.5,90.5 126.5,90.5 127.5,90.5C 127.5,89.5 127.5,88.5 127.5,87.5 Z"/></g>
<g><path style="opacity:1" fill="#e3bd6f" d="M 141.5,75.5 C 142.833,76.1667 144.167,76.8333 145.5,77.5C 145.833,77.5 146.167,77.5 146.5,77.5C 140.022,77.6507 133.355,77.8174 126.5,78C 125.269,79.1827 125.269,80.3493 126.5,81.5C 129.022,83.856 131.688,86.0227 134.5,88C 141.435,89.3602 148.435,90.1935 155.5,90.5C 156.167,90.5 156.833,90.5 157.5,90.5C 161.065,91.7866 164.732,91.7866 168.5,90.5C 172.012,92.6676 174.345,95.6676 175.5,99.5C 174.833,99.1667 174.167,98.8333 173.5,98.5C 172.626,97.4749 171.459,96.8082 170,96.5C 168.445,97.8475 166.611,98.5142 164.5,98.5C 161.092,96.6993 157.425,95.6993 153.5,95.5C 150.657,93.5994 147.324,92.4328 143.5,92C 137.462,92.4904 132.128,90.9904 127.5,87.5C 123.187,83.5219 118.854,79.5219 114.5,75.5C 123.668,75.1252 132.668,75.1252 141.5,75.5 Z"/></g>
<g><path style="opacity:1" fill="#c2737d" d="M 99.5,88.5 C 100.873,88.3433 102.207,88.51 103.5,89C 109.466,95.8102 116.133,101.644 123.5,106.5C 123.56,107.043 123.893,107.376 124.5,107.5C 128.374,104.422 130.707,100.422 131.5,95.5C 138.997,96.4757 146.33,96.4757 153.5,95.5C 157.425,95.6993 161.092,96.6993 164.5,98.5C 166.611,98.5142 168.445,97.8475 170,96.5C 171.459,96.8082 172.626,97.4749 173.5,98.5C 172.5,98.5 171.5,98.5 170.5,98.5C 169.549,104.956 165.883,109.123 159.5,111C 147.928,111.396 136.428,110.562 125,108.5C 123.319,108.608 122.152,109.275 121.5,110.5C 120.761,110.631 120.094,110.464 119.5,110C 112.239,103.244 105.572,96.0775 99.5,88.5 Z"/></g>
<g><path style="opacity:1" fill="#874a67" d="M 173.5,98.5 C 174.167,98.8333 174.833,99.1667 175.5,99.5C 173.416,105.501 170.416,111.001 166.5,116C 162.179,116.499 157.846,116.666 153.5,116.5C 150.833,116.167 148.167,115.833 145.5,115.5C 140.126,115.113 134.793,114.446 129.5,113.5C 128.167,113.5 126.833,113.5 125.5,113.5C 124.329,112.655 122.995,111.989 121.5,111.5C 121.5,111.167 121.5,110.833 121.5,110.5C 122.152,109.275 123.319,108.608 125,108.5C 136.428,110.562 147.928,111.396 159.5,111C 165.883,109.123 169.549,104.956 170.5,98.5C 171.5,98.5 172.5,98.5 173.5,98.5 Z"/></g>
<g><path style="opacity:1" fill="#a7aaa5" d="M 121.5,111.5 C 122.995,111.989 124.329,112.655 125.5,113.5C 119.108,123.269 112.941,133.269 107,143.5C 106.878,141.563 106.045,140.23 104.5,139.5C 105.11,138.609 105.443,137.609 105.5,136.5C 111.069,128.373 116.402,120.039 121.5,111.5 Z"/></g>
<g><path style="opacity:1" fill="#60364b" d="M 187.5,83.5 C 175.271,105.62 163.271,127.954 151.5,150.5C 150.635,151.583 149.635,151.749 148.5,151C 151.196,146.777 153.196,142.277 154.5,137.5C 152.61,137.297 151.11,137.963 150,139.5C 147.579,143.34 145.412,147.34 143.5,151.5C 140.833,152.833 138.167,152.833 135.5,151.5C 142.307,140.218 148.307,128.552 153.5,116.5C 157.846,116.666 162.179,116.499 166.5,116C 170.416,111.001 173.416,105.501 175.5,99.5C 174.345,95.6676 172.012,92.6676 168.5,90.5C 168.389,89.8826 168.056,89.3826 167.5,89C 164.173,88.3897 160.839,87.8897 157.5,87.5C 156.094,84.5865 154.094,82.0865 151.5,80C 163.591,80.3962 175.591,81.5629 187.5,83.5 Z"/></g>
<g><path style="opacity:1" fill="#507486" d="M 125.5,113.5 C 126.833,113.5 128.167,113.5 129.5,113.5C 128.957,114.742 128.623,116.075 128.5,117.5C 129.713,122.469 130.713,127.469 131.5,132.5C 131.746,136.338 130.58,139.672 128,142.5C 127.333,143.833 126.667,143.833 126,142.5C 125.271,137.979 123.937,133.646 122,129.5C 120.644,128.62 119.144,128.286 117.5,128.5C 117.173,130.488 116.84,132.488 116.5,134.5C 118.021,141.1 119.021,147.767 119.5,154.5C 114.167,152.833 108.833,151.167 103.5,149.5C 102.566,148.432 102.232,147.099 102.5,145.5C 102.629,143.784 102.962,142.117 103.5,140.5C 103.5,139.833 103.833,139.5 104.5,139.5C 106.045,140.23 106.878,141.563 107,143.5C 112.941,133.269 119.108,123.269 125.5,113.5 Z"/></g>
<g><path style="opacity:1" fill="#374d62" d="M 129.5,113.5 C 134.793,114.446 140.126,115.113 145.5,115.5C 146.398,116.158 147.398,116.824 148.5,117.5C 141.327,131.187 133.66,144.52 125.5,157.5C 123.164,159.391 120.498,159.891 117.5,159C 113.833,157.333 110.167,155.667 106.5,154C 104.859,152.871 103.859,151.371 103.5,149.5C 108.833,151.167 114.167,152.833 119.5,154.5C 119.021,147.767 118.021,141.1 116.5,134.5C 116.84,132.488 117.173,130.488 117.5,128.5C 119.144,128.286 120.644,128.62 122,129.5C 123.937,133.646 125.271,137.979 126,142.5C 126.667,143.833 127.333,143.833 128,142.5C 130.58,139.672 131.746,136.338 131.5,132.5C 130.713,127.469 129.713,122.469 128.5,117.5C 128.623,116.075 128.957,114.742 129.5,113.5 Z"/></g>
<g><path style="opacity:1" fill="#fdfbc2" d="M 105.5,136.5 C 105.443,137.609 105.11,138.609 104.5,139.5C 103.833,139.5 103.5,139.833 103.5,140.5C 100.921,141.228 98.2538,141.728 95.5,142C 94.4844,142.519 93.8178,143.353 93.5,144.5C 95.7908,148.783 98.4575,152.783 101.5,156.5C 101.715,158.179 101.048,159.179 99.5,159.5C 95.2148,154.548 90.5481,149.881 85.5,145.5C 82.7331,148.047 80.7331,151.047 79.5,154.5C 78.2749,153.848 77.6083,152.681 77.5,151C 77.8056,147.585 78.8056,144.418 80.5,141.5C 82.34,139.832 84.34,138.332 86.5,137C 92.8246,136.5 99.1579,136.334 105.5,136.5 Z"/></g>
<g><path style="opacity:1" fill="#e3bc6a" d="M 103.5,140.5 C 102.962,142.117 102.629,143.784 102.5,145.5C 101.198,148.107 101.364,150.773 103,153.5C 106.814,155.984 110.647,158.318 114.5,160.5C 109.317,161.465 104.984,160.132 101.5,156.5C 98.4575,152.783 95.7908,148.783 93.5,144.5C 93.8178,143.353 94.4844,142.519 95.5,142C 98.2538,141.728 100.921,141.228 103.5,140.5 Z"/></g>
<g><path style="opacity:1" fill="#fefdfe" d="M 168.5,141.5 C 168.5,174.167 168.5,206.833 168.5,239.5C 171.221,239.037 173.888,238.371 176.5,237.5C 175.653,238.966 174.32,239.8 172.5,240C 155.397,243.972 138.064,246.472 120.5,247.5C 114.099,247.181 107.766,246.348 101.5,245C 99.3807,244.902 97.714,244.069 96.5,242.5C 100.414,235.004 104.58,227.671 109,220.5C 112.158,217.781 115.658,215.614 119.5,214C 123.719,213.827 127.719,212.827 131.5,211C 134.426,206.652 137.926,202.818 142,199.5C 144.329,194.681 146.162,189.681 147.5,184.5C 157.257,182.848 161.924,177.015 161.5,167C 161.094,163.077 160.594,159.244 160,155.5C 162.608,150.603 165.441,145.937 168.5,141.5 Z"/></g>
<g><path style="opacity:1" fill="#f6d294" d="M 80.5,141.5 C 78.8056,144.418 77.8056,147.585 77.5,151C 77.6083,152.681 78.2749,153.848 79.5,154.5C 79.5,154.833 79.5,155.167 79.5,155.5C 79.0296,156.693 78.0296,157.36 76.5,157.5C 74.476,156.979 72.476,156.812 70.5,157C 68.9415,159.052 67.6082,161.219 66.5,163.5C 65.209,163.737 64.209,163.404 63.5,162.5C 65.6663,152.418 71.333,145.418 80.5,141.5 Z"/></g>
<g><path style="opacity:1" fill="#e4bc69" d="M 99.5,159.5 C 100.237,161.305 101.237,162.971 102.5,164.5C 100.332,167.498 99.3318,170.831 99.5,174.5C 100.5,174.5 101.5,174.5 102.5,174.5C 101.791,175.404 100.791,175.737 99.5,175.5C 99.1667,175.5 98.8333,175.5 98.5,175.5C 94.743,170.913 90.4097,166.746 85.5,163C 83.3606,160.522 81.3606,158.022 79.5,155.5C 79.5,155.167 79.5,154.833 79.5,154.5C 80.7331,151.047 82.7331,148.047 85.5,145.5C 90.5481,149.881 95.2148,154.548 99.5,159.5 Z"/></g>
<g><path style="opacity:1" fill="#fcf796" d="M 101.5,156.5 C 104.984,160.132 109.317,161.465 114.5,160.5C 116.833,160.5 119.167,160.5 121.5,160.5C 122.826,162.195 122.493,163.528 120.5,164.5C 116.154,164.334 111.821,164.501 107.5,165C 105.68,168.141 104.014,171.308 102.5,174.5C 101.5,174.5 100.5,174.5 99.5,174.5C 99.3318,170.831 100.332,167.498 102.5,164.5C 101.237,162.971 100.237,161.305 99.5,159.5C 101.048,159.179 101.715,158.179 101.5,156.5 Z"/></g>
<g><path style="opacity:1" fill="#c3797a" d="M 102.5,145.5 C 102.232,147.099 102.566,148.432 103.5,149.5C 103.859,151.371 104.859,152.871 106.5,154C 110.167,155.667 113.833,157.333 117.5,159C 120.498,159.891 123.164,159.391 125.5,157.5C 133.507,157.666 141.507,157.5 149.5,157C 151.452,156.634 153.118,155.801 154.5,154.5C 154.5,154.833 154.5,155.167 154.5,155.5C 154.586,156.496 154.252,157.329 153.5,158C 142.854,159.165 132.187,159.998 121.5,160.5C 119.167,160.5 116.833,160.5 114.5,160.5C 110.647,158.318 106.814,155.984 103,153.5C 101.364,150.773 101.198,148.107 102.5,145.5 Z"/></g>
<g><path style="opacity:1" fill="#f6ce8f" d="M 83.5,172.5 C 79.935,171.044 76.6017,169.044 73.5,166.5C 71.9138,168.67 70.5804,171.004 69.5,173.5C 68.675,174.386 67.675,174.719 66.5,174.5C 66.5,173.833 66.1667,173.5 65.5,173.5C 65.5,172.833 65.5,172.167 65.5,171.5C 66.404,170.791 66.7373,169.791 66.5,168.5C 68.2035,162.282 72.2035,159.448 78.5,160C 81.7981,164.3 85.4648,168.3 89.5,172C 87.5273,172.495 85.5273,172.662 83.5,172.5 Z"/></g>
<g><path style="opacity:1" fill="#eed686" d="M 154.5,155.5 C 157.296,157.715 158.296,160.381 157.5,163.5C 157.5,162.833 157.167,162.5 156.5,162.5C 155.726,161.853 154.726,161.52 153.5,161.5C 147.523,164.088 141.523,164.088 135.5,161.5C 130.644,163.254 125.644,164.254 120.5,164.5C 122.493,163.528 122.826,162.195 121.5,160.5C 132.187,159.998 142.854,159.165 153.5,158C 154.252,157.329 154.586,156.496 154.5,155.5 Z"/></g>
<g><path style="opacity:1" fill="#875d6f" d="M 63.5,162.5 C 64.209,163.404 65.209,163.737 66.5,163.5C 66.5,165.167 66.5,166.833 66.5,168.5C 66.7373,169.791 66.404,170.791 65.5,171.5C 62.5762,168.944 61.9095,165.944 63.5,162.5 Z"/></g>
<g><path style="opacity:1" fill="#be7677" d="M 79.5,155.5 C 81.3606,158.022 83.3606,160.522 85.5,163C 90.4097,166.746 94.743,170.913 98.5,175.5C 97.5,175.833 96.8333,176.5 96.5,177.5C 96.1667,177.5 95.8333,177.5 95.5,177.5C 94.791,176.596 93.791,176.263 92.5,176.5C 92.5852,175.005 91.9185,174.005 90.5,173.5C 87.3637,176.429 84.697,179.762 82.5,183.5C 80.3635,184.793 78.3635,184.793 76.5,183.5C 78.6436,179.778 80.9769,176.112 83.5,172.5C 85.5273,172.662 87.5273,172.495 89.5,172C 85.4648,168.3 81.7981,164.3 78.5,160C 72.2035,159.448 68.2035,162.282 66.5,168.5C 66.5,166.833 66.5,165.167 66.5,163.5C 67.6082,161.219 68.9415,159.052 70.5,157C 72.476,156.812 74.476,156.979 76.5,157.5C 78.0296,157.36 79.0296,156.693 79.5,155.5 Z"/></g>
<g><path style="opacity:1" fill="#c3747d" d="M 156.5,162.5 C 155.5,162.5 154.5,162.5 153.5,162.5C 152.653,168.119 149.32,171.286 143.5,172C 129.681,173.666 115.848,175.166 102,176.5C 100.93,176.472 100.097,176.139 99.5,175.5C 100.791,175.737 101.791,175.404 102.5,174.5C 104.014,171.308 105.68,168.141 107.5,165C 111.821,164.501 116.154,164.334 120.5,164.5C 125.644,164.254 130.644,163.254 135.5,161.5C 141.523,164.088 147.523,164.088 153.5,161.5C 154.726,161.52 155.726,161.853 156.5,162.5 Z"/></g>
<g><path style="opacity:1" fill="#8d4e6a" d="M 156.5,162.5 C 157.167,162.5 157.5,162.833 157.5,163.5C 156.447,168.106 154.447,172.273 151.5,176C 148.464,178.006 145.131,178.84 141.5,178.5C 140.167,178.5 138.833,178.5 137.5,178.5C 137.657,179.873 137.49,181.207 137,182.5C 132.743,180.594 128.243,179.594 123.5,179.5C 120.167,179.5 116.833,179.5 113.5,179.5C 112.5,179.5 111.5,179.5 110.5,179.5C 106.154,179.666 101.821,179.499 97.5,179C 96.944,178.617 96.6107,178.117 96.5,177.5C 96.8333,176.5 97.5,175.833 98.5,175.5C 98.8333,175.5 99.1667,175.5 99.5,175.5C 100.097,176.139 100.93,176.472 102,176.5C 115.848,175.166 129.681,173.666 143.5,172C 149.32,171.286 152.653,168.119 153.5,162.5C 154.5,162.5 155.5,162.5 156.5,162.5 Z"/></g>
<g><path style="opacity:1" fill="#dea26e" d="M 83.5,172.5 C 80.9769,176.112 78.6436,179.778 76.5,183.5C 73.7655,179.762 70.4321,176.762 66.5,174.5C 67.675,174.719 68.675,174.386 69.5,173.5C 70.5804,171.004 71.9138,168.67 73.5,166.5C 76.6017,169.044 79.935,171.044 83.5,172.5 Z"/></g>
<g><path style="opacity:1" fill="#f8d394" d="M 92.5,176.5 C 93.791,176.263 94.791,176.596 95.5,177.5C 95.281,178.675 95.6143,179.675 96.5,180.5C 100.5,182.833 104.5,185.167 108.5,187.5C 109.386,188.325 109.719,189.325 109.5,190.5C 109.5,191.167 109.167,191.5 108.5,191.5C 103.963,189.649 99.4626,187.649 95,185.5C 91.2987,187.701 88.4654,190.701 86.5,194.5C 85.5,194.5 84.5,194.5 83.5,194.5C 86.4878,188.507 89.4878,182.507 92.5,176.5 Z"/></g>
<g><path style="opacity:0.349" fill="#251e7e" d="M -0.5,136.5 C 3.2342,172.968 18.9009,203.301 46.5,227.5C 21.4023,207.647 5.73567,181.98 -0.5,150.5C -0.5,145.833 -0.5,141.167 -0.5,136.5 Z"/></g>
<g><path style="opacity:1" fill="#dda16e" d="M 95.5,177.5 C 95.8333,177.5 96.1667,177.5 96.5,177.5C 96.6107,178.117 96.944,178.617 97.5,179C 101.821,179.499 106.154,179.666 110.5,179.5C 110.815,183.371 110.482,187.038 109.5,190.5C 109.719,189.325 109.386,188.325 108.5,187.5C 104.5,185.167 100.5,182.833 96.5,180.5C 95.6143,179.675 95.281,178.675 95.5,177.5 Z"/></g>
<g><path style="opacity:1" fill="#7b5268" d="M 65.5,173.5 C 66.1667,173.5 66.5,173.833 66.5,174.5C 70.4321,176.762 73.7655,179.762 76.5,183.5C 78.3635,184.793 80.3635,184.793 82.5,183.5C 84.697,179.762 87.3637,176.429 90.5,173.5C 91.9185,174.005 92.5852,175.005 92.5,176.5C 89.4878,182.507 86.4878,188.507 83.5,194.5C 84.5,194.5 85.5,194.5 86.5,194.5C 90.9702,197.145 95.8035,199.145 101,200.5C 102.711,200.561 104.044,199.894 105,198.5C 106.193,196.114 107.36,193.78 108.5,191.5C 109.167,191.5 109.5,191.167 109.5,190.5C 110.482,187.038 110.815,183.371 110.5,179.5C 111.5,179.5 112.5,179.5 113.5,179.5C 115.354,186.114 114.354,192.281 110.5,198C 111.27,199.775 112.437,201.275 114,202.5C 116.112,198.722 118.612,195.222 121.5,192C 124.568,190.984 127.568,189.817 130.5,188.5C 127.916,185.651 125.583,182.651 123.5,179.5C 128.243,179.594 132.743,180.594 137,182.5C 137.49,181.207 137.657,179.873 137.5,178.5C 138.833,178.5 140.167,178.5 141.5,178.5C 142.101,187.292 138.934,194.292 132,199.5C 131.529,201.246 130.862,202.913 130,204.5C 124.67,206.602 119.17,207.935 113.5,208.5C 113.389,207.883 113.056,207.383 112.5,207C 108.21,206.077 103.877,205.577 99.5,205.5C 95.3509,203.261 91.0175,201.261 86.5,199.5C 84.5212,198.188 82.8545,196.521 81.5,194.5C 79.7859,195.609 79.1192,194.942 79.5,192.5C 79.5,191.5 79.5,190.5 79.5,189.5C 75.4975,189.029 72.3308,187.029 70,183.5C 68.3333,181.167 66.6667,178.833 65,176.5C 64.2599,175.251 64.4265,174.251 65.5,173.5 Z"/></g>
<g><path style="opacity:1" fill="#ac6771" d="M 113.5,179.5 C 116.833,179.5 120.167,179.5 123.5,179.5C 125.583,182.651 127.916,185.651 130.5,188.5C 127.568,189.817 124.568,190.984 121.5,192C 118.612,195.222 116.112,198.722 114,202.5C 112.437,201.275 111.27,199.775 110.5,198C 114.354,192.281 115.354,186.114 113.5,179.5 Z"/></g>
<g><path style="opacity:1" fill="#af6b71" d="M 108.5,191.5 C 107.36,193.78 106.193,196.114 105,198.5C 104.044,199.894 102.711,200.561 101,200.5C 95.8035,199.145 90.9702,197.145 86.5,194.5C 88.4654,190.701 91.2987,187.701 95,185.5C 99.4626,187.649 103.963,189.649 108.5,191.5 Z"/></g>
<g><path style="opacity:1" fill="#374b61" d="M 86.5,199.5 C 91.0175,201.261 95.3509,203.261 99.5,205.5C 98.3449,208.475 96.6782,211.142 94.5,213.5C 92.9639,216.092 90.6305,217.092 87.5,216.5C 83.534,215.956 79.8674,214.623 76.5,212.5C 76.5,211.833 76.5,211.167 76.5,210.5C 76.4701,209.503 76.9701,208.836 78,208.5C 81.0212,210.007 84.1879,211.007 87.5,211.5C 87.3542,207.481 87.0209,203.481 86.5,199.5 Z"/></g>
<g><path style="opacity:1" fill="#597888" d="M 79.5,192.5 C 79.1192,194.942 79.7859,195.609 81.5,194.5C 82.8545,196.521 84.5212,198.188 86.5,199.5C 87.0209,203.481 87.3542,207.481 87.5,211.5C 84.1879,211.007 81.0212,210.007 78,208.5C 76.9701,208.836 76.4701,209.503 76.5,210.5C 74.5701,205.437 75.5701,200.937 79.5,197C 78.1991,195.384 78.1991,193.884 79.5,192.5 Z"/></g>
<g><path style="opacity:1" fill="#482f45" d="M 99.5,205.5 C 103.877,205.577 108.21,206.077 112.5,207C 113.056,207.383 113.389,207.883 113.5,208.5C 111.705,210.441 109.705,212.107 107.5,213.5C 104.5,213.5 101.5,213.5 98.5,213.5C 97.1667,213.5 95.8333,213.5 94.5,213.5C 96.6782,211.142 98.3449,208.475 99.5,205.5 Z"/></g>
<g><path style="opacity:1" fill="#6b2751" d="M 98.5,213.5 C 101.5,213.5 104.5,213.5 107.5,213.5C 102.594,223.074 97.261,232.407 91.5,241.5C 86.7477,241.807 82.4144,240.473 78.5,237.5C 83.2012,236.392 87.7012,234.726 92,232.5C 92.6355,231.034 93.4688,229.7 94.5,228.5C 91.2152,227.676 87.8818,227.176 84.5,227C 83.1667,226 83.1667,225 84.5,224C 88.1667,223.667 91.8333,223.333 95.5,223C 98.206,220.629 100.539,217.963 102.5,215C 100.942,214.79 99.6085,214.29 98.5,213.5 Z"/></g>
<g><path style="opacity:1" fill="#e74d4e" d="M 76.5,212.5 C 79.8674,214.623 83.534,215.956 87.5,216.5C 87.9175,217.222 88.5842,217.722 89.5,218C 88.3534,220.178 86.6868,221.678 84.5,222.5C 81.8929,221.863 79.5596,220.696 77.5,219C 76.0563,218.219 74.723,218.386 73.5,219.5C 76.2369,223.241 79.5702,226.241 83.5,228.5C 82.3112,229.429 80.9778,229.762 79.5,229.5C 79.4208,230.93 79.7542,232.264 80.5,233.5C 79.8333,233.833 79.1667,234.167 78.5,234.5C 75.2029,232.851 71.8696,231.185 68.5,229.5C 67.8165,229.863 67.1499,230.196 66.5,230.5C 65.4265,229.749 65.2599,228.749 66,227.5C 69.0299,222.084 72.5299,217.084 76.5,212.5 Z"/></g>
<g><path style="opacity:1" fill="#9d3564" d="M 94.5,213.5 C 95.8333,213.5 97.1667,213.5 98.5,213.5C 99.6085,214.29 100.942,214.79 102.5,215C 100.539,217.963 98.206,220.629 95.5,223C 91.8333,223.333 88.1667,223.667 84.5,224C 83.1667,225 83.1667,226 84.5,227C 87.8818,227.176 91.2152,227.676 94.5,228.5C 93.4688,229.7 92.6355,231.034 92,232.5C 87.7012,234.726 83.2012,236.392 78.5,237.5C 73.8349,236.172 69.8349,233.839 66.5,230.5C 67.1499,230.196 67.8165,229.863 68.5,229.5C 71.8696,231.185 75.2029,232.851 78.5,234.5C 79.1667,234.167 79.8333,233.833 80.5,233.5C 79.7542,232.264 79.4208,230.93 79.5,229.5C 80.9778,229.762 82.3112,229.429 83.5,228.5C 79.5702,226.241 76.2369,223.241 73.5,219.5C 74.723,218.386 76.0563,218.219 77.5,219C 79.5596,220.696 81.8929,221.863 84.5,222.5C 86.6868,221.678 88.3534,220.178 89.5,218C 88.5842,217.722 87.9175,217.222 87.5,216.5C 90.6305,217.092 92.9639,216.092 94.5,213.5 Z"/></g>
<g><path style="opacity:0.631" fill="#2b2983" d="M 46.5,227.5 C 48.4044,227.738 49.7377,228.738 50.5,230.5C 48.5956,230.262 47.2623,229.262 46.5,227.5 Z"/></g>
<g><path style="opacity:0.584" fill="#2d2984" d="M 50.5,230.5 C 52.4044,230.738 53.7377,231.738 54.5,233.5C 52.5956,233.262 51.2623,232.262 50.5,230.5 Z"/></g>
<g><path style="opacity:0.322" fill="#242183" d="M 54.5,233.5 C 56.0269,233.427 57.0269,234.094 57.5,235.5C 55.9731,235.573 54.9731,234.906 54.5,233.5 Z"/></g>
<g><path style="opacity:0.243" fill="#221e9b" d="M 57.5,235.5 C 59.0269,235.427 60.0269,236.094 60.5,237.5C 58.9731,237.573 57.9731,236.906 57.5,235.5 Z"/></g>
<g><path style="opacity:0.224" fill="#28267c" d="M 64.5,239.5 C 66.0269,239.427 67.0269,240.094 67.5,241.5C 65.9731,241.573 64.9731,240.906 64.5,239.5 Z"/></g>
<g><path style="opacity:0.933" fill="#635cac" d="M 71.5,243.5 C 74.491,243.166 76.8243,244.166 78.5,246.5C 75.8427,246.065 73.5093,245.065 71.5,243.5 Z"/></g>
<g><path style="opacity:0.612" fill="#5b599c" d="M 84.5,248.5 C 87.6489,248.415 90.3155,249.415 92.5,251.5C 89.4582,251.267 86.7916,250.267 84.5,248.5 Z"/></g>
<g><path style="opacity:0.31" fill="#6265a4" d="M 97.5,252.5 C 100.781,252.42 103.781,253.087 106.5,254.5C 103.219,254.58 100.219,253.913 97.5,252.5 Z"/></g>
</svg>
